<?xml version="1.0" encoding="UTF-8" standalone="no" ?>
<!DOCTYPE svg PUBLIC "-//W3C//DTD SVG 1.1//EN" "http://www.w3.org/Graphics/SVG/1.1/DTD/svg11.dtd">
<svg xmlns="http://www.w3.org/2000/svg" xmlns:xlink="http://www.w3.org/1999/xlink" version="1.1" width="107.8617" height="102.08" xml:space="preserve">
<desc>Created with Fabric.js 1.6.0-rc.1</desc>
<defs></defs>
<g style="stroke: none; stroke-width: 1; stroke-dasharray: none; stroke-linecap: butt; stroke-linejoin: miter; stroke-miterlimit: 10; fill: none; fill-rule: nonzero; opacity: 1;" transform="translate(10 10) scale(0.19 0.16)" >
  <path d="M 461.427 118.519 v 132.216 c 0 64.194 -23.646 125.923 -64.875 169.357 c -30.409 32.032 -129.2 85.756 -133.388 88.02 L 256 512 l -7.164 -3.888 c -4.188 -2.264 -102.979 -55.988 -133.388 -88.02 c -41.23 -43.434 -64.875 -105.163 -64.875 -169.357 V 118.519 l 12.324 -2.254 C 146.659 100.965 244.788 10.43 245.77 9.518 L 256 0 l 10.23 9.518 c 0.982 0.912 99.252 91.477 182.874 106.746 L 461.427 118.519 z" style="stroke: none; stroke-width: 1; stroke-dasharray: none; stroke-linecap: butt; stroke-linejoin: miter; stroke-miterlimit: 10; fill: #3e708f; fill-rule: nonzero; opacity: 1;" transform=" matrix(1 0 0 1 0 0) " stroke-linecap="round" />
  <path d="M 461.427 118.519 v 132.216 c 0 64.194 -23.646 125.923 -64.875 169.357 c -30.409 32.032 -129.2 85.756 -133.388 88.02 L 256 512 V 0 l 10.23 9.518 c 0.982 0.912 99.252 91.477 182.874 106.746 L 461.427 118.519 z" style="stroke: none; stroke-width: 1; stroke-dasharray: none; stroke-linecap: butt; stroke-linejoin: miter; stroke-miterlimit: 10; fill: #62b3d1; fill-rule: nonzero; opacity: 1;" transform=" matrix(1 0 0 1 0 0) " stroke-linecap="round" />
  <path d="M 346.237 271.277 c -1.281 2.16 -6.194 10.649 -8.468 17.652 c -0.442 1.411 -1.271 7.639 -2.007 13.137 c -5.399 40.44 -12.437 80.298 -33.531 84.838 c -1.192 0.253 -2.375 0.383 -3.546 0.383 c -3.626 0 -7.133 -1.221 -10.291 -3.611 c -8.349 -6.318 -14.538 -21.357 -18.914 -45.978 c -2.707 -15.223 -3.794 -29.036 -4.028 -32.309 c -0.551 -1.957 -3.303 -10.574 -9.452 -12.571 c -6.129 1.992 -8.885 10.559 -9.452 12.581 c -0.238 3.288 -1.327 17.091 -4.028 32.299 c -4.375 24.621 -10.564 39.66 -18.914 45.978 c -4.177 3.159 -8.96 4.276 -13.838 3.228 c -21.094 -4.54 -28.132 -44.399 -33.531 -84.838 c -0.735 -5.499 -1.564 -11.727 -2.007 -13.137 c -2.279 -7.033 -7.187 -15.491 -8.468 -17.647 c -22.385 -25.589 -31.048 -57.198 -23.761 -86.83 c 5.528 -22.499 19.51 -40.002 37.395 -46.823 c 36.064 -13.754 73.464 7.415 76.603 9.253 c 3.139 -1.838 40.544 -23.006 76.603 -9.253 c 17.886 6.819 31.868 24.323 37.395 46.823 C 377.284 214.084 368.623 245.692 346.237 271.277 z" style="stroke: none; stroke-width: 1; stroke-dasharray: none; stroke-linecap: butt; stroke-linejoin: miter; stroke-miterlimit: 10; fill: #E0E0E3; fill-rule: nonzero; opacity: 1;" transform=" matrix(1 0 0 1 0 0) " stroke-linecap="round" />
  <path d="M 346.237 271.277 c -1.281 2.16 -6.194 10.649 -8.468 17.652 c -0.442 1.411 -1.271 7.639 -2.007 13.137 c -5.399 40.44 -12.437 80.298 -33.531 84.838 c -1.192 0.253 -2.375 0.383 -3.546 0.383 c -3.626 0 -7.133 -1.221 -10.291 -3.611 c -8.349 -6.318 -14.538 -21.357 -18.914 -45.978 c -2.707 -15.223 -3.794 -29.036 -4.028 -32.309 c -0.551 -1.957 -3.303 -10.574 -9.452 -12.571 V 146.883 c 3.139 -1.838 40.544 -23.006 76.603 -9.253 c 17.886 6.819 31.868 24.323 37.395 46.823 C 377.284 214.084 368.623 245.692 346.237 271.277 z" style="stroke: none; stroke-width: 1; stroke-dasharray: none; stroke-linecap: butt; stroke-linejoin: miter; stroke-miterlimit: 10; fill: #C7C5CC; fill-rule: nonzero; opacity: 1;" transform=" matrix(1 0 0 1 0 0) " stroke-linecap="round" />
</g>
</svg>